<?xml version="1.0"?>
<svg xmlns="http://www.w3.org/2000/svg" id="Outline" viewBox="0 0 512 512" width="512px" height="512px" class=""><g><path d="M413.657,114.343l-96-96A8,8,0,0,0,312,16H72A40.045,40.045,0,0,0,32,56V456a40.045,40.045,0,0,0,40,40H368a111.991,111.991,0,0,0,48-213.179V120A8,8,0,0,0,413.657,114.343ZM320,43.313,388.687,112H344a24.028,24.028,0,0,1-24-24ZM72,480a24.028,24.028,0,0,1-24-24V56A24.028,24.028,0,0,1,72,32H304V88a40.045,40.045,0,0,0,40,40h56V276.666A111.983,111.983,0,0,0,310.369,480Zm392-96a95.958,95.958,0,0,1-149.5,79.676L433.979,314.332A95.741,95.741,0,0,1,464,384Zm-42.5-79.676L302.021,453.668A95.956,95.956,0,0,1,421.5,304.324Z" data-original="#000000" class="active-path" data-old_color="#000000" fill="#94AAB0"/><path d="M160,168a8,8,0,0,0,8,8H360a8,8,0,0,0,0-16H168A8,8,0,0,0,160,168Z" data-original="#000000" class="active-path" data-old_color="#000000" fill="#94AAB0"/><path d="M88,224H248a8,8,0,0,0,0-16H88a8,8,0,0,0,0,16Z" data-original="#000000" class="active-path" data-old_color="#000000" fill="#94AAB0"/><path d="M280,256H216a8,8,0,0,0,0,16h64a8,8,0,0,0,0-16Z" data-original="#000000" class="active-path" data-old_color="#000000" fill="#94AAB0"/><path d="M232,304H88a8,8,0,0,0,0,16H232a8,8,0,0,0,0-16Z" data-original="#000000" class="active-path" data-old_color="#000000" fill="#94AAB0"/><path d="M88,176h48a8,8,0,0,0,0-16H88a8,8,0,0,0,0,16Z" data-original="#000000" class="active-path" data-old_color="#000000" fill="#94AAB0"/><path d="M360,208H280a8,8,0,0,0,0,16h80a8,8,0,0,0,0-16Z" data-original="#000000" class="active-path" data-old_color="#000000" fill="#94AAB0"/><path d="M88,272h96a8,8,0,0,0,0-16H88a8,8,0,0,0,0,16Z" data-original="#000000" class="active-path" data-old_color="#000000" fill="#94AAB0"/><path d="M216,400H184a8,8,0,0,0,0,16h32a8,8,0,0,0,0-16Z" data-original="#000000" class="active-path" data-old_color="#000000" fill="#94AAB0"/><path d="M152,400H88a8,8,0,0,0,0,16h64a8,8,0,0,0,0-16Z" data-original="#000000" class="active-path" data-old_color="#000000" fill="#94AAB0"/><path d="M88,368h48a8,8,0,0,0,0-16H88a8,8,0,0,0,0,16Z" data-original="#000000" class="active-path" data-old_color="#000000" fill="#94AAB0"/><path d="M88,128h96a8,8,0,0,0,0-16H88a8,8,0,0,0,0,16Z" data-original="#000000" class="active-path" data-old_color="#000000" fill="#94AAB0"/><path d="M216,352H168a8,8,0,0,0,0,16h48a8,8,0,0,0,0-16Z" data-original="#000000" class="active-path" data-old_color="#000000" fill="#94AAB0"/></g> </svg>
