<?xml version="1.0"?>
<svg xmlns="http://www.w3.org/2000/svg" xmlns:xlink="http://www.w3.org/1999/xlink" version="1.1" id="Capa_1" x="0px" y="0px" width="512px" height="512px" viewBox="0 0 470.586 470.586" style="enable-background:new 0 0 470.586 470.586;" xml:space="preserve"><g><g>
	<path d="M327.081,0H90.234c-15.9,0-28.854,12.959-28.854,28.859v412.863c0,15.924,12.953,28.863,28.854,28.863H380.35   c15.917,0,28.855-12.939,28.855-28.863V89.234L327.081,0z M333.891,43.184l35.996,39.121h-35.996V43.184z M384.972,441.723   c0,2.542-2.081,4.629-4.634,4.629H90.234c-2.551,0-4.62-2.087-4.62-4.629V28.859c0-2.548,2.069-4.613,4.62-4.613h219.41v70.181   c0,6.682,5.444,12.099,12.129,12.099h63.198V441.723z M292.415,111.713H111.593V63.292h180.898c0,0.267-0.076,0.485-0.076,0.757   V111.713z" data-original="#000000" class="active-path" data-old_color="#000000" fill="#94AAB0"/>
</g></g> </svg>
