<?xml version="1.0"?>
<svg xmlns="http://www.w3.org/2000/svg" height="512px" viewBox="0 0 512 512" width="512px"><g><path d="m106 331h35v105c0 8.285156 6.714844 15 15 15h60c8.285156 0 15-6.714844 15-15v-65h50v65c0 8.285156 6.714844 15 15 15h60c8.285156 0 15-6.714844 15-15v-105h35c6.371094 0 12.046875-4.023438 14.152344-10.035156 2.109375-6.011719.191406-12.699219-4.78125-16.679688l-150-120c-5.480469-4.382812-13.265625-4.382812-18.742188 0l-150 120c-4.972656 3.980469-6.894531 10.667969-4.785156 16.679688 2.109375 6.011718 7.785156 10.035156 14.15625 10.035156zm150-115.789062 107.238281 85.789062h-7.238281c-8.285156 0-15 6.714844-15 15v105h-30v-65c0-8.285156-6.714844-15-15-15h-80c-8.285156 0-15 6.714844-15 15v65h-30v-105c0-8.285156-6.714844-15-15-15h-7.238281zm0 0" data-original="#000000" class="active-path" data-old_color="#000000" fill="#94AAB0"/><path d="m467 0h-422c-24.8125 0-45 20.1875-45 45v422c0 24.8125 20.1875 45 45 45h422c24.8125 0 45-20.1875 45-45v-422c0-24.8125-20.1875-45-45-45zm-437 45c0-8.269531 6.730469-15 15-15h422c8.269531 0 15 6.730469 15 15v75h-452zm452 422c0 8.269531-6.730469 15-15 15h-422c-8.269531 0-15-6.730469-15-15v-317h452zm0 0" data-original="#000000" class="active-path" data-old_color="#000000" fill="#94AAB0"/><path d="m452 75c0 8.285156-6.714844 15-15 15s-15-6.714844-15-15 6.714844-15 15-15 15 6.714844 15 15zm0 0" data-original="#000000" class="active-path" data-old_color="#000000" fill="#94AAB0"/><path d="m392 75c0 8.285156-6.714844 15-15 15s-15-6.714844-15-15 6.714844-15 15-15 15 6.714844 15 15zm0 0" data-original="#000000" class="active-path" data-old_color="#000000" fill="#94AAB0"/><path d="m332 75c0 8.285156-6.714844 15-15 15s-15-6.714844-15-15 6.714844-15 15-15 15 6.714844 15 15zm0 0" data-original="#000000" class="active-path" data-old_color="#000000" fill="#94AAB0"/></g> </svg>
