<?xml version="1.0"?>
<svg xmlns="http://www.w3.org/2000/svg" xmlns:xlink="http://www.w3.org/1999/xlink" version="1.1" id="Capa_1" x="0px" y="0px" viewBox="0 0 512 512" style="enable-background:new 0 0 512 512;" xml:space="preserve" width="512px" height="512px"><g><path d="M433.689,95.549l-52-44C378.98,49.257,375.548,48,372,48h-73.5V15c0-8.284-6.716-15-15-15h-60c-8.284,0-15,6.716-15,15v33  H100c-8.944,0-15.915,7.795-14.904,16.694l10,88C95.957,160.274,102.371,166,110,166h98.5v56H140c-3.548,0-6.98,1.257-9.689,3.549  l-52,44c-7.079,5.99-7.074,16.916,0,22.901l52,44C133.02,338.743,136.452,340,140,340h68.5v157c0,8.284,6.716,15,15,15h60  c8.284,0,15-6.716,15-15V340H402c7.629,0,14.043-5.726,14.904-13.306l10-88C427.914,229.807,420.956,222,412,222H298.5v-56H372  c3.548,0,6.98-1.257,9.689-3.549l52-44C440.769,112.46,440.763,101.535,433.689,95.549z M238.5,30h30v18h-30V30z M268.5,482h-30V340  h30V482z M388.608,310H145.494l-34.272-29l34.272-29h249.705L388.608,310z M268.5,222h-30v-56h30V222z M366.506,136H123.392  l-6.591-58h249.705l34.272,29L366.506,136z" data-original="#000000" class="active-path" data-old_color="#000000" fill="#94AAB0"/></g> </svg>
