<?xml version="1.0"?>
<svg xmlns="http://www.w3.org/2000/svg" xmlns:xlink="http://www.w3.org/1999/xlink" version="1.1" id="Capa_1" x="0px" y="0px" viewBox="0 0 512 512" style="enable-background:new 0 0 512 512;" xml:space="preserve" width="512px" height="512px"><g><g>
	<g>
		<path d="M345.754,122.095H104.925c-8.278,0-14.989,6.711-14.989,14.989c0,8.278,6.711,14.989,14.989,14.989h240.829    c8.278,0,14.989-6.711,14.989-14.989C360.744,128.807,354.032,122.095,345.754,122.095z" data-original="#000000" class="active-path" data-old_color="#000000" fill="#94AAB0"/>
	</g>
</g><g>
	<g>
		<path d="M315.776,212.031h-210.85c-8.278,0-14.989,6.711-14.989,14.989c0,8.278,6.711,14.989,14.989,14.989h210.85    c8.278,0,14.989-6.711,14.989-14.989C330.765,218.743,324.054,212.031,315.776,212.031z" data-original="#000000" class="active-path" data-old_color="#000000" fill="#94AAB0"/>
	</g>
</g><g>
	<g>
		<path d="M225.839,301.967H104.925c-8.278,0-14.989,6.711-14.989,14.989c0,8.278,6.711,14.989,14.989,14.989h120.914    c8.278,0,14.989-6.711,14.989-14.989C240.829,308.679,234.118,301.967,225.839,301.967z" data-original="#000000" class="active-path" data-old_color="#000000" fill="#94AAB0"/>
	</g>
</g><g>
	<g>
		<path d="M498.818,162.893c-13.262-13.262-32.812-16.483-49.138-9.683V15.171c0-8.278-6.711-14.989-14.989-14.989h-58.958    c-8.278,0-14.989,6.711-14.989,14.989c0,8.265-6.724,14.989-14.989,14.989c-8.265,0-14.989-6.724-14.989-14.989    c0-8.278-6.711-14.989-14.989-14.989h-59.957c-8.278,0-14.989,6.711-14.989,14.989c0,8.265-6.724,14.989-14.989,14.989    s-14.989-6.724-14.989-14.989c0-8.278-6.711-14.989-14.989-14.989h-60.957c-8.278,0-14.989,6.711-14.989,14.989    c0,8.265-6.724,14.989-14.989,14.989c-8.265,0-14.989-6.724-14.989-14.989c0-8.278-6.711-14.989-14.989-14.989H14.989    C6.711,0.182,0,6.893,0,15.171v481.658c0,8.278,6.711,14.989,14.989,14.989h419.702c8.278,0,14.989-6.711,14.989-14.989V275.813    c35.906-36.147,21.278-21.465,49.138-49.325C516.393,208.915,516.396,180.47,498.818,162.893z M419.702,481.84H29.979V30.161    h32.547c6.187,17.449,22.858,29.979,42.4,29.979s36.213-12.53,42.4-29.979h36.115c6.187,17.449,22.858,29.979,42.4,29.979    s36.213-12.53,42.4-29.979h35.116c6.186,17.449,22.857,29.979,42.4,29.979c19.543,0,36.213-12.53,42.4-29.979h31.546v148.256    c-8.688,8.688,19.077-19.243-154.385,155.385c-1.665,1.676-2.91,3.721-3.633,5.97l-16.786,52.134H104.925    c-8.278,0-14.989,6.711-14.989,14.989c0,8.278,6.711,14.889,14.989,14.889H255.81c0.003,0,0.007,0,0.01,0    c1.531,0,3.217-0.184,4.564-0.614c0.009-0.003,0.019-0.005,0.028-0.008l62.53-20.133c2.28-0.734,4.351-2.005,6.04-3.704    c2.404-2.42,88.38-88.975,90.72-91.33V481.84z M294.551,346.909l21.198,21.198l-5.466,5.503l-31.239,10.058l10.074-31.289    L294.551,346.909z M336.875,346.838l-21.198-21.198L424.66,215.925l21.198,21.198    C441.891,241.117,341.628,342.053,336.875,346.838z M477.62,205.29l-10.599,10.599l-21.198-21.198l10.598-10.599    c5.844-5.844,15.353-5.846,21.199,0C483.465,189.937,483.465,199.446,477.62,205.29z" data-original="#000000" class="active-path" data-old_color="#000000" fill="#94AAB0"/>
	</g>
</g></g> </svg>
