<?xml version="1.0" encoding="utf-8"?>
<!-- Generator: Adobe Illustrator 22.0.1, SVG Export Plug-In . SVG Version: 6.00 Build 0)  -->
<svg version="1.1" id="Layer_1" xmlns="http://www.w3.org/2000/svg" xmlns:xlink="http://www.w3.org/1999/xlink" x="0px" y="0px"
	 viewBox="0 0 24 24" style="enable-background:new 0 0 24 24;" xml:space="preserve">
<style type="text/css">
	.st0{fill:#FFFFFF;}
</style>
<path class="st0" d="M7,11h2v2H7V11z M7,15h2v2H7V15z M11,11h2v2h-2V11z M11,15h2v2h-2V15z M15,11h2v2h-2V11z M15,15h2v2h-2V15z"/>
<path class="st0" d="M5,22h14c1.1,0,2-0.9,2-2V6c0-1.1-0.9-2-2-2h-2V2h-2v2H9V2H7v2H5C3.9,4,3,4.9,3,6v14C3,21.1,3.9,22,5,22z M19,8
	l0,12H5V8H19z"/>
</svg>
