<?xml version="1.0"?>
<svg xmlns="http://www.w3.org/2000/svg" xmlns:xlink="http://www.w3.org/1999/xlink" version="1.1" id="Layer_1" x="0px" y="0px" viewBox="0 0 512 512" style="enable-background:new 0 0 512 512;" xml:space="preserve" width="512px" height="512px"><g><g>
	<g>
		<path d="M63,33C28.262,33,0,61.262,0,96s28.262,63,63,63s63-28.262,63-63C126,61.262,97.738,33,63,33z M63,129    c-18.196,0-33-14.804-33-33s14.804-33,33-33s33,14.804,33,33S81.196,129,63,129z" data-original="#000000" class="active-path" data-old_color="#000000" fill="#94AAB0"/>
	</g>
</g><g>
	<g>
		<path d="M63,193c-34.738,0-63,28.262-63,63c0,34.738,28.262,63,63,63s63-28.262,63-63C126,221.262,97.738,193,63,193z M63,289    c-18.196,0-33-14.804-33-33c0-18.196,14.804-33,33-33s33,14.804,33,33S81.196,289,63,289z" data-original="#000000" class="active-path" data-old_color="#000000" fill="#94AAB0"/>
	</g>
</g><g>
	<g>
		<path d="M63,353c-34.738,0-63,28.262-63,63c0,34.738,28.262,63,63,63s63-28.262,63-63C126,381.262,97.738,353,63,353z M63,449    c-18.196,0-33-14.804-33-33c0-18.196,14.804-33,33-33s33,14.804,33,33C96,434.196,81.196,449,63,449z" data-original="#000000" class="active-path" data-old_color="#000000" fill="#94AAB0"/>
	</g>
</g><g>
	<g>
		<path d="M465,49H207c-25.916,0-47,21.084-47,47s21.084,47,47,47h258c25.916,0,47-21.084,47-47S490.916,49,465,49z M465,113H207    c-9.374,0-17-7.626-17-17s7.626-17,17-17h258c9.374,0,17,7.626,17,17S474.374,113,465,113z" data-original="#000000" class="active-path" data-old_color="#000000" fill="#94AAB0"/>
	</g>
</g><g>
	<g>
		<path d="M465,209H207c-25.916,0-47,21.084-47,47s21.084,47,47,47h258c25.916,0,47-21.084,47-47S490.916,209,465,209z M465,273H207    c-9.374,0-17-7.626-17-17c0-9.374,7.626-17,17-17h258c9.374,0,17,7.626,17,17C482,265.374,474.374,273,465,273z" data-original="#000000" class="active-path" data-old_color="#000000" fill="#94AAB0"/>
	</g>
</g><g>
	<g>
		<path d="M465,369H207c-25.916,0-47,21.084-47,47s21.084,47,47,47h258c25.916,0,47-21.084,47-47S490.916,369,465,369z M465,433H207    c-9.374,0-17-7.626-17-17c0-9.374,7.626-17,17-17h258c9.374,0,17,7.626,17,17C482,425.374,474.374,433,465,433z" data-original="#000000" class="active-path" data-old_color="#000000" fill="#94AAB0"/>
	</g>
</g></g> </svg>
