<?xml version="1.0"?>
<svg xmlns="http://www.w3.org/2000/svg" xmlns:xlink="http://www.w3.org/1999/xlink" version="1.1" id="Layer_1" x="0px" y="0px" viewBox="0 0 512 512" style="enable-background:new 0 0 512 512;" xml:space="preserve" width="512px" height="512px"><g><g>
	<g>
		<path d="M365.157,0H146.843c-24.362,0-44.11,19.748-44.11,44.11V467.89c0,24.361,19.748,44.11,44.11,44.11h218.314    c24.361,0,44.11-19.748,44.11-44.11V44.11C409.267,19.748,389.519,0,365.157,0z M136.051,44.627    c0.001-5.951,4.612-11.308,10.562-11.308h218.773c5.95,0,10.561,5.358,10.561,11.308v34.227H136.051V44.627z M375.948,468.483    c0,5.951-4.611,11.308-10.561,11.308H146.613c-5.95,0-10.561-5.358-10.561-11.308v-54.219h239.896V468.483z M375.948,380.946    H136.052V112.174h239.896V380.946z" data-original="#000000" class="active-path" data-old_color="#000000" fill="#94AAB0"/>
	</g>
</g><g>
	<g>
		<circle cx="256" cy="445.373" r="17.512" data-original="#000000" class="active-path" data-old_color="#000000" fill="#94AAB0"/>
	</g>
</g></g> </svg>
