<?xml version="1.0"?>
<svg xmlns="http://www.w3.org/2000/svg" xmlns:xlink="http://www.w3.org/1999/xlink" version="1.1" id="Layer_1" x="0px" y="0px" viewBox="0 0 512 512" style="enable-background:new 0 0 512 512;" xml:space="preserve" width="512px" height="512px"><g><g>
	<g>
		<path d="M507.001,34.541c-6.664-6.664-17.471-6.664-24.136,0l-35.938,35.938V52.597c0-9.425-7.641-17.067-17.067-17.067H17.067    C7.641,35.531,0,43.172,0,52.597v412.794c0,9.425,7.641,17.067,17.067,17.067h412.795c9.425,0,17.067-7.641,17.067-17.067V118.75    l60.074-60.074C513.667,52.012,513.667,41.206,507.001,34.541z M412.795,104.612L222.797,294.608L120.925,192.736    c-6.664-6.665-17.471-6.665-24.136,0s-6.665,17.471,0,24.136l113.94,113.94c6.665,6.665,17.471,6.665,24.136,0l177.929-177.929    v295.441H34.133V69.664h378.662V104.612z" data-original="#000000" class="active-path" data-old_color="#000000" fill="#94AAB0"/>
	</g>
</g></g> </svg>
