<?xml version="1.0"?>
<svg xmlns="http://www.w3.org/2000/svg" height="512px" viewBox="0 -48 512 512" width="512px"><g><path d="m497 80.332031h-97.46875v-26.984375l27.742188-27.742187c5.859374-5.855469 5.859374-15.355469 0-21.210938-5.859376-5.859375-15.355469-5.859375-21.214844 0l-21.527344 21.523438-21.523438-21.523438c-5.855468-5.859375-15.355468-5.859375-21.214843 0-5.855469 5.855469-5.855469 15.355469 0 21.210938l27.738281 27.742187v26.984375h-354.53125c-8.285156 0-15 6.71875-15 15v224.933594c0 8.285156 6.714844 15 15 15h354.53125v26.988281l-27.738281 27.738282c-5.855469 5.859374-5.855469 15.355468 0 21.214843 5.859375 5.859375 15.355469 5.859375 21.214843 0l21.523438-21.527343 21.527344 21.527343c5.859375 5.859375 15.359375 5.855469 21.214844 0 5.859374-5.859375 5.859374-15.355469 0-21.214843l-27.742188-27.738282v-26.984375h97.46875c8.285156 0 15-6.71875 15-15v-224.9375c0-8.285156-6.714844-15-15-15zm-467 224.933594v-194.933594h339.53125v82.46875h-1.0625c-8.285156 0-15 6.714844-15 15 0 8.28125 6.714844 15 15 15h1.0625v82.464844zm452 0h-82.46875v-82.464844h1.066406c8.285156 0 15-6.71875 15-15 0-8.285156-6.714844-15-15-15h-1.066406v-82.46875h82.46875zm0 0" data-original="#000000" class="active-path" data-old_color="#000000" fill="#94AAB0"/></g> </svg>
