<?xml version="1.0" encoding="utf-8"?>
<!-- Generator: Adobe Illustrator 22.0.1, SVG Export Plug-In . SVG Version: 6.00 Build 0)  -->
<svg version="1.1" id="Layer_1" xmlns="http://www.w3.org/2000/svg" xmlns:xlink="http://www.w3.org/1999/xlink" x="0px" y="0px"
	 viewBox="0 0 366.1 89.3" style="enable-background:new 0 0 366.1 89.3;" xml:space="preserve">
<style type="text/css">
	.st0{fill:#FEFEFE;}
</style>
<g>
	<path class="st0" d="M20.9,46.7c-0.2,2.8-1.2,4.9-3,6.5s-4.3,2.4-7.3,2.4c-3.3,0-5.9-1.1-7.7-3.3S0,47,0,43.1v-1.6
		c0-2.5,0.4-4.6,1.3-6.5s2.1-3.3,3.7-4.3s3.5-1.5,5.6-1.5c3,0,5.3,0.8,7.1,2.4s2.8,3.8,3.1,6.7h-5.3c-0.1-1.7-0.6-2.9-1.4-3.6
		s-2-1.1-3.6-1.1c-1.8,0-3.1,0.6-3.9,1.9s-1.3,3.2-1.3,5.9v1.9c0,2.8,0.4,4.8,1.3,6.1s2.2,1.9,4,1.9c1.6,0,2.8-0.4,3.6-1.1
		s1.3-1.9,1.4-3.5H20.9z"/>
	<path class="st0" d="M38.8,49.9h-9.2l-1.8,5.3h-5.6l9.5-25.6h4.9l9.6,25.6h-5.6L38.8,49.9z M31,45.6h6.4l-3.2-9.6L31,45.6z"/>
	<path class="st0" d="M69.4,55.2h-5.3L53.8,38.3v16.8h-5.3V29.6h5.3l10.3,16.9V29.6h5.3V55.2z"/>
	<path class="st0" d="M205,49.9h-9.2l-1.8,5.3h-5.6l9.5-25.6h4.9l9.6,25.6h-5.6L205,49.9z M197.1,45.6h6.4l-3.2-9.6L197.1,45.6z"/>
	<path class="st0" d="M235.5,55.2h-5.3L220,38.3v16.8h-5.3V29.6h5.3l10.3,16.9V29.6h5.3V55.2z"/>
	<path class="st0" d="M248.5,41.1l5.3-11.5h5.8l-8.4,16.3v9.3h-5.4v-9.3l-8.4-16.3h5.8L248.5,41.1z"/>
	<path class="st0" d="M281.5,33.9h-7.8v21.3h-5.3V33.9h-7.7v-4.3h20.8V33.9z"/>
	<path class="st0" d="M305.3,55.2H300v-11h-10.3v11h-5.3V29.6h5.3V40H300V29.6h5.3V55.2z"/>
	<path class="st0" d="M315.5,55.2h-5.3V29.6h5.3V55.2z"/>
	<path class="st0" d="M341.2,55.2H336l-10.3-16.8v16.8h-5.3V29.6h5.3L336,46.5V29.6h5.3V55.2z"/>
	<path class="st0" d="M366.1,52c-0.9,1.1-2.3,2-4,2.6s-3.7,0.9-5.8,0.9c-2.2,0-4.2-0.5-5.8-1.5s-3-2.4-3.9-4.2s-1.4-4-1.4-6.5v-1.7
		c0-2.6,0.4-4.8,1.3-6.6s2.1-3.3,3.7-4.3s3.5-1.5,5.7-1.5c3,0,5.4,0.7,7.1,2.2s2.7,3.6,3,6.3h-5.1c-0.2-1.5-0.8-2.5-1.6-3.2
		s-1.9-1-3.3-1c-1.8,0-3.2,0.7-4.1,2s-1.4,3.4-1.4,6v1.6c0,2.7,0.5,4.7,1.5,6.1s2.5,2.1,4.5,2.1c2,0,3.4-0.4,4.2-1.3v-4.4H356v-3.9
		h10.1V52z"/>
</g>
<g>
	<path class="st0" d="M124.9,32.6c0-2.3-1.2-3.5-3.6-3.6h-4.8v6.9h4.5c1.2,0,2.2-0.3,2.9-0.9S124.9,33.7,124.9,32.6z"/>
	<path class="st0" d="M119,48.9h-2.6v17.1h2.5c2.1,0,3.6-0.7,4.7-2s1.6-3.3,1.7-5.8v-1.4c0-2.6-0.5-4.6-1.6-5.9S121.1,48.9,119,48.9
		z"/>
	<path class="st0" d="M124.3,22.1c0-1.2-0.3-2-1-2.5s-1.7-0.8-3.2-0.8h-3.7v6.5h3.9C123,25.3,124.3,24.2,124.3,22.1z"/>
	<path class="st0" d="M144.7,48.6c-1.8,0-3.1,0.7-4.1,2.1s-1.4,3.4-1.5,6.1V58c0,2.6,0.5,4.6,1.4,6.1s2.3,2.2,4.1,2.2
		c1.8,0,3.1-0.7,4.1-2.1s1.4-3.4,1.4-6.1v-1.2c0-2.7-0.5-4.7-1.4-6.1S146.5,48.6,144.7,48.6z"/>
	<path class="st0" d="M131.9,0c-24.7,0-44.7,20-44.7,44.7c0,24.7,20,44.7,44.7,44.7s44.7-20,44.7-44.7C176.6,20,156.6,0,131.9,0z
		 M111.2,14.6h9c3.1,0,5.5,0.6,7.1,1.8s2.4,2.9,2.4,5.2c0,1.3-0.3,2.4-1,3.3s-1.5,1.7-2.7,2.1c1.3,0.3,2.3,1,3.1,2s1.1,2.2,1.1,3.7
		c0,2.5-0.8,4.3-2.4,5.6s-3.8,1.9-6.7,1.9h-9.9V14.6z M130.7,58c0,2.4-0.5,4.5-1.5,6.3s-2.4,3.3-4.1,4.3s-3.8,1.5-6,1.5h-7.9V44.6
		h7.9c2.3,0,4.3,0.5,6,1.5s3.2,2.5,4.2,4.3s1.5,4,1.5,6.4V58z M134.1,14.6h17.1v4.3h-11.8V25h10.1v4.1h-10.1v6.9h11.9v4.2h-17.2
		V14.6z M155.6,58c0,2.5-0.4,4.7-1.3,6.6s-2.2,3.4-3.8,4.4s-3.6,1.5-5.7,1.5c-2.1,0-4-0.5-5.7-1.5s-3-2.5-3.9-4.4s-1.4-4.1-1.4-6.5
		v-1.3c0-2.5,0.5-4.7,1.4-6.7s2.2-3.4,3.8-4.4s3.6-1.5,5.7-1.5s4,0.5,5.7,1.5s2.9,2.5,3.8,4.4s1.4,4.1,1.4,6.6V58z"/>
</g>
</svg>
