<?xml version="1.0" encoding="utf-8"?>
<!-- Generator: Adobe Illustrator 22.0.1, SVG Export Plug-In . SVG Version: 6.00 Build 0)  -->
<svg version="1.1" id="Layer_1" xmlns="http://www.w3.org/2000/svg" xmlns:xlink="http://www.w3.org/1999/xlink" x="0px" y="0px"
	 viewBox="0 0 400.1 86.5" style="enable-background:new 0 0 400.1 86.5;" xml:space="preserve">
<style type="text/css">
	.st0{fill:#7B205D;}
</style>
<g>
	<path class="st0" d="M31.6,85.8H0v-17h8.9V17H0V0h41.9c5.6,0,10.5,0.7,14.8,2.2c4.3,1.5,8,3.5,10.9,6.1c2.9,2.6,5.2,5.6,6.7,8.9
		c1.6,3.4,2.3,7,2.3,11c0,3.9-0.7,7.6-2.2,11c-1.4,3.4-3.5,6.4-6.4,8.9c-2.8,2.6-6.3,4.6-10.5,6.1c-4.2,1.5-9.1,2.2-14.7,2.2H31.6
		L31.6,85.8z M45.4,39.4c2.2,0,4.1-0.8,5.7-2.5c1.6-1.7,2.4-4.6,2.4-8.8c0-4.2-0.8-7.1-2.4-8.7c-1.6-1.6-3.5-2.5-5.7-2.5H31.6v22.4
		H45.4z"/>
	<path class="st0" d="M89.1,16.9H80V0h30.5v68.9h9.1v16.9H89.1V16.9z"/>
	<path class="st0" d="M172.7,24.1c4.1,1.2,7.2,2.8,9.3,4.8c2.1,2,3.4,4.2,3.9,6.8c0.5,2.6,0.8,5.2,0.8,7.9v25.2h9.3v16.9h-27.5
		l-1.8-5.3c-2.1,1.9-4.6,3.4-7.6,4.4c-3,1.1-6.3,1.6-10.1,1.6c-3.8,0-7.1-0.5-10.1-1.6c-3-1-5.5-2.5-7.6-4.4
		c-2.1-1.9-3.7-4.1-4.8-6.6c-1.1-2.5-1.7-5.2-1.7-8.1c0-2.9,0.6-5.5,1.7-8c1.1-2.5,2.7-4.7,4.8-6.6c2.1-1.9,4.6-3.3,7.6-4.4
		c3-1.1,6.3-1.6,10.1-1.6c5.8,0,11.1,1.1,14.3,2.3v-2.3c0-1-0.2-1.8-0.5-2.5c-0.3-0.7-0.9-1.3-1.8-1.7c0,0-7.8-6.1-27.3,1.1
		l-6.9-12.7C151.2,17.5,172.7,24.1,172.7,24.1z M153.9,73c2,0,3.9-0.5,5.7-1.6c1.8-1.1,2.8-2.9,2.8-5.6c0-2.6-0.9-4.4-2.8-5.5
		c-1.8-1.1-3.7-1.6-5.7-1.6c-2,0-3.9,0.5-5.8,1.6c-1.8,1.1-2.7,2.9-2.7,5.5c0,2.7,0.9,4.6,2.7,5.6C150,72.5,151.9,73,153.9,73z"/>
	<path class="st0" d="M254.5,56.2c0-1.3-0.2-2.7-0.7-4.1c-0.4-1.4-1.2-2.7-2.1-3.9c-1-1.2-2.2-2.1-3.6-2.9c-1.4-0.7-3.1-1.1-5.1-1.1
		c0,0-11.4-0.2-11.4,13.1v28.4h-30.5V68.9h9.1V43.1h-9.1V26.2h27l3.6,7.7c1.9-2.4,4.6-4.4,8.1-6.1c3.5-1.7,7.7-2.6,12.6-2.6
		c25.1,0,23.7,28.5,23.7,28.5v15.1h9.1v16.9h-30.5V56.2z"/>
	<path class="st0" d="M400.1,16.9V0H370v26c4.7,0,8.4,3.8,8.4,8.4c0,4.7-3.8,8.4-8.4,8.4c-4.7,0-8.4-3.8-8.4-8.4c0,0,0,0,0,0H341V0
		h-30.5v16.9h9.3v52h-9.3v16.9H341V51.3h29v34.4h30.2V68.9h-9v-52H400.1z"/>
</g>
</svg>
