<?xml version="1.0"?>
<svg xmlns="http://www.w3.org/2000/svg" xmlns:xlink="http://www.w3.org/1999/xlink" version="1.1" id="Capa_1" x="0px" y="0px" viewBox="0 0 512 512" style="enable-background:new 0 0 512 512;" xml:space="preserve" width="512px" height="512px"><g><g>
	<g>
		<path d="M467,60h-15V45c0-24.813-20.187-45-45-45s-45,20.187-45,45v15h-60V45c0-24.813-20.187-45-45-45s-45,20.187-45,45v15h-62    V45c0-24.813-20.187-45-45-45S60,20.187,60,45v15H45C20.187,60,0,80.187,0,105c0,2.176,0,356.248,0,362c0,24.813,20.187,45,45,45    h422c24.813,0,45-20.187,45-45c0-2.763,0-357.126,0-362C512,80.187,491.813,60,467,60z M392,45c0-8.271,6.729-15,15-15    s15,6.729,15,15v60c0,8.271-6.729,15-15,15s-15-6.729-15-15V45z M242,45c0-8.271,6.729-15,15-15s15,6.729,15,15v60    c0,8.271-6.729,15-15,15s-15-6.729-15-15V45z M90,45c0-8.271,6.729-15,15-15s15,6.729,15,15v60c0,8.271-6.729,15-15,15    s-15-6.729-15-15V45z M482,467c0,8.271-6.729,15-15,15H45c-8.271,0-15-6.729-15-15V212h452V467z M482,182H30v-77    c0-8.271,6.729-15,15-15h15v15c0,24.813,20.187,45,45,45s45-20.187,45-45V90h62v15c0,24.813,20.187,45,45,45s45-20.187,45-45V90    h60v15c0,24.813,20.187,45,45,45s45-20.187,45-45V90h15c8.271,0,15,6.729,15,15V182z" data-original="#000000" class="active-path" data-old_color="#000000" fill="#94AAB0"/>
	</g>
</g><g>
	<g>
		<path d="M437,242H75c-8.284,0-15,6.716-15,15v180c0,8.284,6.716,15,15,15h362c8.284,0,15-6.716,15-15V257    C452,248.716,445.284,242,437,242z M150,422H90v-60h60V422z M150,332H90v-60h60V332z M242,422h-62v-60h62V422z M242,332h-62v-60    h62V332z M332,422h-60v-60h60V422z M332,332h-60v-60h60V332z M422,422h-60v-60h60V422z M422,332h-60v-60h60V332z" data-original="#000000" class="active-path" data-old_color="#000000" fill="#94AAB0"/>
	</g>
</g></g> </svg>
